<mxfile host="app.diagrams.net" modified="2022-01-18T11:58:03.845Z" agent="5.0 (Macintosh; Intel Mac OS X 10_15_7) AppleWebKit/537.36 (KHTML, like Gecko) Chrome/96.0.4664.110 Safari/537.36" etag="zG7kD2PBrADwXO9YyJbJ" version="16.1.0" type="github">
  <diagram id="q-CESADFSMoE5rDKoy9S" name="第 1 页">
    <mxGraphModel dx="947" dy="502" grid="1" gridSize="10" guides="1" tooltips="1" connect="1" arrows="1" fold="1" page="1" pageScale="1" pageWidth="827" pageHeight="1169" math="0" shadow="0">
      <root>
        <mxCell id="0" />
        <mxCell id="1" parent="0" />
        <mxCell id="JaEttNUjWMTkqEFJcnPO-65" value="&lt;font face=&quot;Comic Sans MS&quot; style=&quot;font-size: 14px&quot;&gt;0&lt;/font&gt;" style="rounded=0;whiteSpace=wrap;html=1;fillColor=#f5f5f5;fontColor=#333333;strokeColor=#666666;shadow=1;opacity=0;" vertex="1" parent="1">
          <mxGeometry x="280" y="200" width="40" height="40" as="geometry" />
        </mxCell>
        <mxCell id="JaEttNUjWMTkqEFJcnPO-66" value="&lt;font face=&quot;Comic Sans MS&quot; style=&quot;font-size: 14px&quot;&gt;1&lt;/font&gt;" style="rounded=0;whiteSpace=wrap;html=1;fillColor=#f5f5f5;fontColor=#333333;strokeColor=#666666;shadow=1;opacity=0;" vertex="1" parent="1">
          <mxGeometry x="280" y="240" width="40" height="40" as="geometry" />
        </mxCell>
        <mxCell id="JaEttNUjWMTkqEFJcnPO-1" value="&lt;font face=&quot;Comic Sans MS&quot; style=&quot;font-size: 14px&quot;&gt;7&lt;/font&gt;" style="rounded=0;whiteSpace=wrap;html=1;fillColor=#f5f5f5;fontColor=#333333;strokeColor=#666666;shadow=1;opacity=0;" vertex="1" parent="1">
          <mxGeometry x="320" y="160" width="40" height="40" as="geometry" />
        </mxCell>
        <mxCell id="JaEttNUjWMTkqEFJcnPO-2" value="&lt;font face=&quot;Comic Sans MS&quot; style=&quot;font-size: 14px&quot;&gt;14&lt;/font&gt;" style="rounded=0;whiteSpace=wrap;html=1;fillColor=#f5f5f5;fontColor=#333333;strokeColor=#666666;shadow=1;opacity=0;" vertex="1" parent="1">
          <mxGeometry x="360" y="160" width="40" height="40" as="geometry" />
        </mxCell>
        <mxCell id="JaEttNUjWMTkqEFJcnPO-3" value="... ..." style="rounded=0;whiteSpace=wrap;html=1;fillColor=#f5f5f5;fontColor=#333333;strokeColor=#666666;shadow=1;opacity=0;" vertex="1" parent="1">
          <mxGeometry x="400" y="160" width="120" height="40" as="geometry" />
        </mxCell>
        <mxCell id="JaEttNUjWMTkqEFJcnPO-6" value="&lt;font face=&quot;Comic Sans MS&quot; style=&quot;font-size: 14px&quot;&gt;42&lt;/font&gt;" style="rounded=0;whiteSpace=wrap;html=1;fillColor=#f5f5f5;fontColor=#333333;strokeColor=#666666;shadow=1;opacity=0;" vertex="1" parent="1">
          <mxGeometry x="520" y="160" width="40" height="40" as="geometry" />
        </mxCell>
        <mxCell id="JaEttNUjWMTkqEFJcnPO-15" value="&lt;font face=&quot;Comic Sans MS&quot; style=&quot;font-size: 14px&quot;&gt;7&lt;/font&gt;" style="rounded=0;whiteSpace=wrap;html=1;fillColor=#f5f5f5;fontColor=#333333;strokeColor=#666666;shadow=1;" vertex="1" parent="1">
          <mxGeometry x="320" y="200" width="40" height="40" as="geometry" />
        </mxCell>
        <mxCell id="JaEttNUjWMTkqEFJcnPO-16" value="&lt;font face=&quot;Comic Sans MS&quot; style=&quot;font-size: 14px&quot;&gt;14&lt;/font&gt;" style="rounded=0;whiteSpace=wrap;html=1;fillColor=#f5f5f5;fontColor=#333333;strokeColor=#666666;shadow=1;" vertex="1" parent="1">
          <mxGeometry x="360" y="200" width="40" height="40" as="geometry" />
        </mxCell>
        <mxCell id="JaEttNUjWMTkqEFJcnPO-17" value="... ..." style="rounded=0;whiteSpace=wrap;html=1;fillColor=#f5f5f5;fontColor=#333333;strokeColor=#666666;shadow=1;" vertex="1" parent="1">
          <mxGeometry x="400" y="200" width="120" height="40" as="geometry" />
        </mxCell>
        <mxCell id="JaEttNUjWMTkqEFJcnPO-20" value="&lt;font face=&quot;Comic Sans MS&quot; style=&quot;font-size: 14px&quot;&gt;42&lt;/font&gt;" style="rounded=0;whiteSpace=wrap;html=1;fillColor=#f5f5f5;fontColor=#333333;strokeColor=#666666;shadow=1;" vertex="1" parent="1">
          <mxGeometry x="520" y="200" width="40" height="40" as="geometry" />
        </mxCell>
        <mxCell id="JaEttNUjWMTkqEFJcnPO-21" value="&lt;font face=&quot;Comic Sans MS&quot; style=&quot;font-size: 14px&quot;&gt;6&lt;/font&gt;" style="rounded=0;whiteSpace=wrap;html=1;fillColor=#f5f5f5;fontColor=#333333;strokeColor=#666666;shadow=1;" vertex="1" parent="1">
          <mxGeometry x="320" y="240" width="40" height="40" as="geometry" />
        </mxCell>
        <mxCell id="JaEttNUjWMTkqEFJcnPO-22" value="&lt;font face=&quot;Comic Sans MS&quot; style=&quot;font-size: 14px&quot;&gt;13&lt;/font&gt;" style="rounded=0;whiteSpace=wrap;html=1;fillColor=#f5f5f5;fontColor=#333333;strokeColor=#666666;shadow=1;" vertex="1" parent="1">
          <mxGeometry x="360" y="240" width="40" height="40" as="geometry" />
        </mxCell>
        <mxCell id="JaEttNUjWMTkqEFJcnPO-23" value="... ..." style="rounded=0;whiteSpace=wrap;html=1;fillColor=#f5f5f5;fontColor=#333333;strokeColor=#666666;shadow=1;" vertex="1" parent="1">
          <mxGeometry x="400" y="240" width="120" height="40" as="geometry" />
        </mxCell>
        <mxCell id="JaEttNUjWMTkqEFJcnPO-26" value="&lt;font face=&quot;Comic Sans MS&quot; style=&quot;font-size: 14px&quot;&gt;41&lt;/font&gt;" style="rounded=0;whiteSpace=wrap;html=1;fillColor=#f5f5f5;fontColor=#333333;strokeColor=#666666;shadow=1;" vertex="1" parent="1">
          <mxGeometry x="520" y="240" width="40" height="40" as="geometry" />
        </mxCell>
        <mxCell id="JaEttNUjWMTkqEFJcnPO-57" value="&lt;font face=&quot;Comic Sans MS&quot; style=&quot;font-size: 14px&quot;&gt;49&lt;/font&gt;" style="rounded=0;whiteSpace=wrap;html=1;fillColor=#f5f5f5;fontColor=#333333;strokeColor=#666666;shadow=1;opacity=0;" vertex="1" parent="1">
          <mxGeometry x="560" y="160" width="40" height="40" as="geometry" />
        </mxCell>
        <mxCell id="JaEttNUjWMTkqEFJcnPO-58" value="&lt;font face=&quot;Comic Sans MS&quot; style=&quot;font-size: 14px&quot;&gt;49&lt;/font&gt;" style="rounded=0;whiteSpace=wrap;html=1;fillColor=#f5f5f5;fontColor=#333333;strokeColor=#666666;shadow=1;" vertex="1" parent="1">
          <mxGeometry x="560" y="200" width="40" height="40" as="geometry" />
        </mxCell>
        <mxCell id="JaEttNUjWMTkqEFJcnPO-59" value="&lt;font face=&quot;Comic Sans MS&quot; style=&quot;font-size: 14px&quot;&gt;48&lt;/font&gt;" style="rounded=0;whiteSpace=wrap;html=1;fillColor=#f5f5f5;fontColor=#333333;strokeColor=#666666;shadow=1;" vertex="1" parent="1">
          <mxGeometry x="560" y="240" width="40" height="40" as="geometry" />
        </mxCell>
        <mxCell id="JaEttNUjWMTkqEFJcnPO-72" value="... ..." style="rounded=0;whiteSpace=wrap;html=1;fillColor=#f5f5f5;fontColor=#333333;strokeColor=#666666;shadow=1;" vertex="1" parent="1">
          <mxGeometry x="320" y="280" width="280" height="40" as="geometry" />
        </mxCell>
        <mxCell id="JaEttNUjWMTkqEFJcnPO-71" value="&lt;font face=&quot;Comic Sans MS&quot; style=&quot;font-size: 14px&quot;&gt;6&lt;/font&gt;" style="rounded=0;whiteSpace=wrap;html=1;fillColor=#f5f5f5;fontColor=#333333;strokeColor=#666666;shadow=1;opacity=0;" vertex="1" parent="1">
          <mxGeometry x="280" y="320" width="40" height="40" as="geometry" />
        </mxCell>
        <mxCell id="JaEttNUjWMTkqEFJcnPO-51" value="&lt;font face=&quot;Comic Sans MS&quot; style=&quot;font-size: 14px&quot;&gt;1&lt;/font&gt;" style="rounded=0;whiteSpace=wrap;html=1;fillColor=#f5f5f5;fontColor=#333333;strokeColor=#666666;shadow=1;" vertex="1" parent="1">
          <mxGeometry x="320" y="320" width="40" height="40" as="geometry" />
        </mxCell>
        <mxCell id="JaEttNUjWMTkqEFJcnPO-52" value="&lt;font face=&quot;Comic Sans MS&quot; style=&quot;font-size: 14px&quot;&gt;8&lt;/font&gt;" style="rounded=0;whiteSpace=wrap;html=1;fillColor=#f5f5f5;fontColor=#333333;strokeColor=#666666;shadow=1;" vertex="1" parent="1">
          <mxGeometry x="360" y="320" width="40" height="40" as="geometry" />
        </mxCell>
        <mxCell id="JaEttNUjWMTkqEFJcnPO-53" value="... ..." style="rounded=0;whiteSpace=wrap;html=1;fillColor=#f5f5f5;fontColor=#333333;strokeColor=#666666;shadow=1;" vertex="1" parent="1">
          <mxGeometry x="400" y="320" width="120" height="40" as="geometry" />
        </mxCell>
        <mxCell id="JaEttNUjWMTkqEFJcnPO-56" value="&lt;font face=&quot;Comic Sans MS&quot; style=&quot;font-size: 14px&quot;&gt;36&lt;/font&gt;" style="rounded=0;whiteSpace=wrap;html=1;fillColor=#f5f5f5;fontColor=#333333;strokeColor=#666666;shadow=1;" vertex="1" parent="1">
          <mxGeometry x="520" y="320" width="40" height="40" as="geometry" />
        </mxCell>
        <mxCell id="JaEttNUjWMTkqEFJcnPO-64" value="&lt;font face=&quot;Comic Sans MS&quot; style=&quot;font-size: 14px&quot;&gt;43&lt;/font&gt;" style="rounded=0;whiteSpace=wrap;html=1;fillColor=#f5f5f5;fontColor=#333333;strokeColor=#666666;shadow=1;" vertex="1" parent="1">
          <mxGeometry x="560" y="320" width="40" height="40" as="geometry" />
        </mxCell>
        <mxCell id="JaEttNUjWMTkqEFJcnPO-76" value="&lt;div class=&quot;okr-block-clipboard&quot;&gt;&lt;/div&gt;&lt;div&gt;&lt;font style=&quot;font-size: 12px&quot;&gt;rand7 - 1 &lt;/font&gt;&lt;/div&gt;" style="text;html=1;strokeColor=none;fillColor=none;align=center;verticalAlign=middle;whiteSpace=wrap;rounded=0;shadow=1;fontFamily=Comic Sans MS;fontSize=14;opacity=0;" vertex="1" parent="1">
          <mxGeometry x="230" y="170" width="60" height="20" as="geometry" />
        </mxCell>
        <mxCell id="JaEttNUjWMTkqEFJcnPO-77" value="&lt;div class=&quot;okr-block-clipboard&quot;&gt;&lt;/div&gt;&lt;div&gt;&lt;font style=&quot;font-size: 12px&quot;&gt;7 * rand7&lt;/font&gt;&lt;/div&gt;" style="text;html=1;strokeColor=none;fillColor=none;align=center;verticalAlign=middle;whiteSpace=wrap;rounded=0;shadow=1;fontFamily=Comic Sans MS;fontSize=14;opacity=0;" vertex="1" parent="1">
          <mxGeometry x="290" y="150" width="60" height="20" as="geometry" />
        </mxCell>
        <mxCell id="JaEttNUjWMTkqEFJcnPO-78" value="..." style="text;html=1;strokeColor=none;fillColor=none;align=center;verticalAlign=middle;whiteSpace=wrap;rounded=0;shadow=1;fontFamily=Comic Sans MS;fontSize=14;opacity=0;" vertex="1" parent="1">
          <mxGeometry x="280" y="280" width="40" height="40" as="geometry" />
        </mxCell>
        <mxCell id="JaEttNUjWMTkqEFJcnPO-79" value="" style="endArrow=none;html=1;rounded=0;fontFamily=Comic Sans MS;fontSize=14;entryX=1;entryY=0;entryDx=0;entryDy=0;" edge="1" parent="1" target="JaEttNUjWMTkqEFJcnPO-65">
          <mxGeometry width="50" height="50" relative="1" as="geometry">
            <mxPoint x="280" y="160" as="sourcePoint" />
            <mxPoint x="320" y="130" as="targetPoint" />
          </mxGeometry>
        </mxCell>
        <mxCell id="JaEttNUjWMTkqEFJcnPO-80" value="&lt;div class=&quot;okr-block-clipboard&quot;&gt;&lt;/div&gt;&lt;div&gt;&lt;font style=&quot;font-size: 12px&quot; color=&quot;#ff6666&quot;&gt;(7 - 0)&lt;/font&gt;&lt;/div&gt;" style="text;html=1;strokeColor=none;fillColor=none;align=center;verticalAlign=middle;whiteSpace=wrap;rounded=0;shadow=1;fontFamily=Comic Sans MS;fontSize=14;opacity=0;" vertex="1" parent="1">
          <mxGeometry x="320" y="225" width="40" height="15" as="geometry" />
        </mxCell>
        <mxCell id="JaEttNUjWMTkqEFJcnPO-82" value="&lt;div class=&quot;okr-block-clipboard&quot;&gt;&lt;/div&gt;&lt;div&gt;&lt;font style=&quot;font-size: 12px&quot; color=&quot;#ff6666&quot;&gt;(14 - 0)&lt;/font&gt;&lt;/div&gt;" style="text;html=1;strokeColor=none;fillColor=none;align=center;verticalAlign=middle;whiteSpace=wrap;rounded=0;shadow=1;fontFamily=Comic Sans MS;fontSize=14;opacity=0;" vertex="1" parent="1">
          <mxGeometry x="355" y="225" width="50" height="15" as="geometry" />
        </mxCell>
        <mxCell id="JaEttNUjWMTkqEFJcnPO-83" value="&lt;div class=&quot;okr-block-clipboard&quot;&gt;&lt;/div&gt;&lt;div&gt;&lt;font style=&quot;font-size: 12px&quot; color=&quot;#ff6666&quot;&gt;(7 - 1)&lt;/font&gt;&lt;/div&gt;" style="text;html=1;strokeColor=none;fillColor=none;align=center;verticalAlign=middle;whiteSpace=wrap;rounded=0;shadow=1;fontFamily=Comic Sans MS;fontSize=14;opacity=0;" vertex="1" parent="1">
          <mxGeometry x="320" y="265" width="40" height="15" as="geometry" />
        </mxCell>
        <mxCell id="JaEttNUjWMTkqEFJcnPO-84" value="&lt;div class=&quot;okr-block-clipboard&quot;&gt;&lt;/div&gt;&lt;div&gt;&lt;font style=&quot;font-size: 12px&quot; color=&quot;#ff6666&quot;&gt;(7 - 6)&lt;/font&gt;&lt;/div&gt;" style="text;html=1;strokeColor=none;fillColor=none;align=center;verticalAlign=middle;whiteSpace=wrap;rounded=0;shadow=1;fontFamily=Comic Sans MS;fontSize=14;opacity=0;" vertex="1" parent="1">
          <mxGeometry x="320" y="345" width="40" height="15" as="geometry" />
        </mxCell>
        <mxCell id="JaEttNUjWMTkqEFJcnPO-85" value="&lt;div class=&quot;okr-block-clipboard&quot;&gt;&lt;/div&gt;&lt;div&gt;&lt;font style=&quot;font-size: 12px&quot; color=&quot;#ff6666&quot;&gt;(49 - 6)&lt;/font&gt;&lt;/div&gt;" style="text;html=1;strokeColor=none;fillColor=none;align=center;verticalAlign=middle;whiteSpace=wrap;rounded=0;shadow=1;fontFamily=Comic Sans MS;fontSize=14;opacity=0;" vertex="1" parent="1">
          <mxGeometry x="555" y="345" width="50" height="15" as="geometry" />
        </mxCell>
        <mxCell id="JaEttNUjWMTkqEFJcnPO-86" value="&lt;div class=&quot;okr-block-clipboard&quot;&gt;&lt;/div&gt;&lt;div&gt;&lt;font style=&quot;font-size: 12px&quot; color=&quot;#ff6666&quot;&gt;(49 - 0)&lt;/font&gt;&lt;/div&gt;" style="text;html=1;strokeColor=none;fillColor=none;align=center;verticalAlign=middle;whiteSpace=wrap;rounded=0;shadow=1;fontFamily=Comic Sans MS;fontSize=14;opacity=0;" vertex="1" parent="1">
          <mxGeometry x="555" y="225" width="50" height="15" as="geometry" />
        </mxCell>
        <mxCell id="JaEttNUjWMTkqEFJcnPO-87" value="&lt;div class=&quot;okr-block-clipboard&quot;&gt;&lt;/div&gt;&lt;div&gt;&lt;font style=&quot;font-size: 12px&quot; color=&quot;#ff6666&quot;&gt;(49 - 1&lt;/font&gt;&lt;/div&gt;" style="text;html=1;strokeColor=none;fillColor=none;align=center;verticalAlign=middle;whiteSpace=wrap;rounded=0;shadow=1;fontFamily=Comic Sans MS;fontSize=14;opacity=0;" vertex="1" parent="1">
          <mxGeometry x="555" y="265" width="50" height="15" as="geometry" />
        </mxCell>
        <mxCell id="JaEttNUjWMTkqEFJcnPO-89" value="&lt;font face=&quot;Comic Sans MS&quot; style=&quot;font-size: 14px&quot;&gt;0&lt;/font&gt;" style="rounded=0;whiteSpace=wrap;html=1;fillColor=#f5f5f5;fontColor=#333333;strokeColor=#666666;shadow=1;opacity=0;" vertex="1" parent="1">
          <mxGeometry x="280" y="520" width="40" height="40" as="geometry" />
        </mxCell>
        <mxCell id="JaEttNUjWMTkqEFJcnPO-90" value="&lt;font face=&quot;Comic Sans MS&quot; style=&quot;font-size: 14px&quot;&gt;1&lt;/font&gt;" style="rounded=0;whiteSpace=wrap;html=1;fillColor=#f5f5f5;fontColor=#333333;strokeColor=#666666;shadow=1;opacity=0;" vertex="1" parent="1">
          <mxGeometry x="280" y="560" width="40" height="40" as="geometry" />
        </mxCell>
        <mxCell id="JaEttNUjWMTkqEFJcnPO-91" value="&lt;font face=&quot;Comic Sans MS&quot; style=&quot;font-size: 14px&quot;&gt;0&lt;/font&gt;" style="rounded=0;whiteSpace=wrap;html=1;fillColor=#f5f5f5;fontColor=#333333;strokeColor=#666666;shadow=1;opacity=0;" vertex="1" parent="1">
          <mxGeometry x="320" y="480" width="40" height="40" as="geometry" />
        </mxCell>
        <mxCell id="JaEttNUjWMTkqEFJcnPO-92" value="&lt;font face=&quot;Comic Sans MS&quot; style=&quot;font-size: 14px&quot;&gt;1&lt;/font&gt;" style="rounded=0;whiteSpace=wrap;html=1;fillColor=#f5f5f5;fontColor=#333333;strokeColor=#666666;shadow=1;opacity=0;" vertex="1" parent="1">
          <mxGeometry x="360" y="480" width="40" height="40" as="geometry" />
        </mxCell>
        <mxCell id="JaEttNUjWMTkqEFJcnPO-93" value="... ..." style="rounded=0;whiteSpace=wrap;html=1;fillColor=#f5f5f5;fontColor=#333333;strokeColor=#666666;shadow=1;opacity=0;" vertex="1" parent="1">
          <mxGeometry x="400" y="480" width="120" height="40" as="geometry" />
        </mxCell>
        <mxCell id="JaEttNUjWMTkqEFJcnPO-94" value="&lt;font face=&quot;Comic Sans MS&quot; style=&quot;font-size: 14px&quot;&gt;5&lt;/font&gt;" style="rounded=0;whiteSpace=wrap;html=1;fillColor=#f5f5f5;fontColor=#333333;strokeColor=#666666;shadow=1;opacity=0;" vertex="1" parent="1">
          <mxGeometry x="520" y="480" width="40" height="40" as="geometry" />
        </mxCell>
        <mxCell id="JaEttNUjWMTkqEFJcnPO-95" value="&lt;font face=&quot;Comic Sans MS&quot; style=&quot;font-size: 14px&quot;&gt;00&lt;/font&gt;" style="rounded=0;whiteSpace=wrap;html=1;fillColor=#f5f5f5;fontColor=#333333;strokeColor=#666666;shadow=1;" vertex="1" parent="1">
          <mxGeometry x="320" y="520" width="40" height="40" as="geometry" />
        </mxCell>
        <mxCell id="JaEttNUjWMTkqEFJcnPO-96" value="&lt;font face=&quot;Comic Sans MS&quot; style=&quot;font-size: 14px&quot;&gt;01&lt;/font&gt;" style="rounded=0;whiteSpace=wrap;html=1;fillColor=#f5f5f5;fontColor=#333333;strokeColor=#666666;shadow=1;" vertex="1" parent="1">
          <mxGeometry x="360" y="520" width="40" height="40" as="geometry" />
        </mxCell>
        <mxCell id="JaEttNUjWMTkqEFJcnPO-97" value="... ..." style="rounded=0;whiteSpace=wrap;html=1;fillColor=#f5f5f5;fontColor=#333333;strokeColor=#666666;shadow=1;" vertex="1" parent="1">
          <mxGeometry x="400" y="520" width="120" height="40" as="geometry" />
        </mxCell>
        <mxCell id="JaEttNUjWMTkqEFJcnPO-98" value="&lt;font face=&quot;Comic Sans MS&quot; style=&quot;font-size: 14px&quot;&gt;05&lt;/font&gt;" style="rounded=0;whiteSpace=wrap;html=1;fillColor=#f5f5f5;fontColor=#333333;strokeColor=#666666;shadow=1;" vertex="1" parent="1">
          <mxGeometry x="520" y="520" width="40" height="40" as="geometry" />
        </mxCell>
        <mxCell id="JaEttNUjWMTkqEFJcnPO-99" value="&lt;font face=&quot;Comic Sans MS&quot; style=&quot;font-size: 14px&quot;&gt;10&lt;/font&gt;" style="rounded=0;whiteSpace=wrap;html=1;fillColor=#f5f5f5;fontColor=#333333;strokeColor=#666666;shadow=1;" vertex="1" parent="1">
          <mxGeometry x="320" y="560" width="40" height="40" as="geometry" />
        </mxCell>
        <mxCell id="JaEttNUjWMTkqEFJcnPO-100" value="&lt;font face=&quot;Comic Sans MS&quot; style=&quot;font-size: 14px&quot;&gt;11&lt;/font&gt;" style="rounded=0;whiteSpace=wrap;html=1;fillColor=#f5f5f5;fontColor=#333333;strokeColor=#666666;shadow=1;" vertex="1" parent="1">
          <mxGeometry x="360" y="560" width="40" height="40" as="geometry" />
        </mxCell>
        <mxCell id="JaEttNUjWMTkqEFJcnPO-101" value="... ..." style="rounded=0;whiteSpace=wrap;html=1;fillColor=#f5f5f5;fontColor=#333333;strokeColor=#666666;shadow=1;" vertex="1" parent="1">
          <mxGeometry x="400" y="560" width="120" height="40" as="geometry" />
        </mxCell>
        <mxCell id="JaEttNUjWMTkqEFJcnPO-102" value="&lt;font face=&quot;Comic Sans MS&quot; style=&quot;font-size: 14px&quot;&gt;15&lt;/font&gt;" style="rounded=0;whiteSpace=wrap;html=1;fillColor=#f5f5f5;fontColor=#333333;strokeColor=#666666;shadow=1;" vertex="1" parent="1">
          <mxGeometry x="520" y="560" width="40" height="40" as="geometry" />
        </mxCell>
        <mxCell id="JaEttNUjWMTkqEFJcnPO-103" value="&lt;font face=&quot;Comic Sans MS&quot; style=&quot;font-size: 14px&quot;&gt;6&lt;/font&gt;" style="rounded=0;whiteSpace=wrap;html=1;fillColor=#f5f5f5;fontColor=#333333;strokeColor=#666666;shadow=1;opacity=0;" vertex="1" parent="1">
          <mxGeometry x="560" y="480" width="40" height="40" as="geometry" />
        </mxCell>
        <mxCell id="JaEttNUjWMTkqEFJcnPO-104" value="&lt;font face=&quot;Comic Sans MS&quot; style=&quot;font-size: 14px&quot;&gt;06&lt;/font&gt;" style="rounded=0;whiteSpace=wrap;html=1;fillColor=#f5f5f5;fontColor=#333333;strokeColor=#666666;shadow=1;" vertex="1" parent="1">
          <mxGeometry x="560" y="520" width="40" height="40" as="geometry" />
        </mxCell>
        <mxCell id="JaEttNUjWMTkqEFJcnPO-105" value="&lt;font face=&quot;Comic Sans MS&quot; style=&quot;font-size: 14px&quot;&gt;16&lt;/font&gt;" style="rounded=0;whiteSpace=wrap;html=1;fillColor=#f5f5f5;fontColor=#333333;strokeColor=#666666;shadow=1;" vertex="1" parent="1">
          <mxGeometry x="560" y="560" width="40" height="40" as="geometry" />
        </mxCell>
        <mxCell id="JaEttNUjWMTkqEFJcnPO-106" value="... ..." style="rounded=0;whiteSpace=wrap;html=1;fillColor=#f5f5f5;fontColor=#333333;strokeColor=#666666;shadow=1;" vertex="1" parent="1">
          <mxGeometry x="320" y="600" width="280" height="40" as="geometry" />
        </mxCell>
        <mxCell id="JaEttNUjWMTkqEFJcnPO-107" value="&lt;font face=&quot;Comic Sans MS&quot;&gt;&lt;span style=&quot;font-size: 14px&quot;&gt;6&lt;/span&gt;&lt;/font&gt;" style="rounded=0;whiteSpace=wrap;html=1;fillColor=#f5f5f5;fontColor=#333333;strokeColor=#666666;shadow=1;opacity=0;" vertex="1" parent="1">
          <mxGeometry x="280" y="640" width="40" height="40" as="geometry" />
        </mxCell>
        <mxCell id="JaEttNUjWMTkqEFJcnPO-108" value="&lt;font face=&quot;Comic Sans MS&quot; style=&quot;font-size: 14px&quot;&gt;60&lt;/font&gt;" style="rounded=0;whiteSpace=wrap;html=1;fillColor=#f5f5f5;fontColor=#333333;strokeColor=#666666;shadow=1;" vertex="1" parent="1">
          <mxGeometry x="320" y="640" width="40" height="40" as="geometry" />
        </mxCell>
        <mxCell id="JaEttNUjWMTkqEFJcnPO-109" value="&lt;font face=&quot;Comic Sans MS&quot; style=&quot;font-size: 14px&quot;&gt;61&lt;/font&gt;" style="rounded=0;whiteSpace=wrap;html=1;fillColor=#f5f5f5;fontColor=#333333;strokeColor=#666666;shadow=1;" vertex="1" parent="1">
          <mxGeometry x="360" y="640" width="40" height="40" as="geometry" />
        </mxCell>
        <mxCell id="JaEttNUjWMTkqEFJcnPO-110" value="... ..." style="rounded=0;whiteSpace=wrap;html=1;fillColor=#f5f5f5;fontColor=#333333;strokeColor=#666666;shadow=1;" vertex="1" parent="1">
          <mxGeometry x="400" y="640" width="120" height="40" as="geometry" />
        </mxCell>
        <mxCell id="JaEttNUjWMTkqEFJcnPO-111" value="&lt;font face=&quot;Comic Sans MS&quot; style=&quot;font-size: 14px&quot;&gt;65&lt;/font&gt;" style="rounded=0;whiteSpace=wrap;html=1;fillColor=#f5f5f5;fontColor=#333333;strokeColor=#666666;shadow=1;" vertex="1" parent="1">
          <mxGeometry x="520" y="640" width="40" height="40" as="geometry" />
        </mxCell>
        <mxCell id="JaEttNUjWMTkqEFJcnPO-112" value="&lt;font face=&quot;Comic Sans MS&quot; style=&quot;font-size: 14px&quot;&gt;66&lt;/font&gt;" style="rounded=0;whiteSpace=wrap;html=1;fillColor=#f5f5f5;fontColor=#333333;strokeColor=#666666;shadow=1;" vertex="1" parent="1">
          <mxGeometry x="560" y="640" width="40" height="40" as="geometry" />
        </mxCell>
        <mxCell id="JaEttNUjWMTkqEFJcnPO-115" value="..." style="text;html=1;strokeColor=none;fillColor=none;align=center;verticalAlign=middle;whiteSpace=wrap;rounded=0;shadow=1;fontFamily=Comic Sans MS;fontSize=14;opacity=0;" vertex="1" parent="1">
          <mxGeometry x="280" y="600" width="40" height="40" as="geometry" />
        </mxCell>
        <mxCell id="JaEttNUjWMTkqEFJcnPO-124" value="&lt;div class=&quot;okr-block-clipboard&quot;&gt;&lt;/div&gt;&lt;div&gt;&lt;font style=&quot;font-size: 12px&quot; color=&quot;#ff6666&quot;&gt;(0)&lt;/font&gt;&lt;/div&gt;" style="text;html=1;strokeColor=none;fillColor=none;align=center;verticalAlign=middle;whiteSpace=wrap;rounded=0;shadow=1;fontFamily=Comic Sans MS;fontSize=14;opacity=0;" vertex="1" parent="1">
          <mxGeometry x="320" y="545" width="40" height="15" as="geometry" />
        </mxCell>
        <mxCell id="JaEttNUjWMTkqEFJcnPO-125" value="&lt;div class=&quot;okr-block-clipboard&quot;&gt;&lt;/div&gt;&lt;div&gt;&lt;font style=&quot;font-size: 12px&quot; color=&quot;#ff6666&quot;&gt;(1)&lt;/font&gt;&lt;/div&gt;" style="text;html=1;strokeColor=none;fillColor=none;align=center;verticalAlign=middle;whiteSpace=wrap;rounded=0;shadow=1;fontFamily=Comic Sans MS;fontSize=14;opacity=0;" vertex="1" parent="1">
          <mxGeometry x="360" y="545" width="40" height="15" as="geometry" />
        </mxCell>
        <mxCell id="JaEttNUjWMTkqEFJcnPO-126" value="&lt;div class=&quot;okr-block-clipboard&quot;&gt;&lt;/div&gt;&lt;div&gt;&lt;font style=&quot;font-size: 12px&quot; color=&quot;#ff6666&quot;&gt;(5)&lt;/font&gt;&lt;/div&gt;" style="text;html=1;strokeColor=none;fillColor=none;align=center;verticalAlign=middle;whiteSpace=wrap;rounded=0;shadow=1;fontFamily=Comic Sans MS;fontSize=14;opacity=0;" vertex="1" parent="1">
          <mxGeometry x="520" y="545" width="40" height="15" as="geometry" />
        </mxCell>
        <mxCell id="JaEttNUjWMTkqEFJcnPO-127" value="&lt;div class=&quot;okr-block-clipboard&quot;&gt;&lt;/div&gt;&lt;div&gt;&lt;font style=&quot;font-size: 12px&quot; color=&quot;#ff6666&quot;&gt;(6)&lt;/font&gt;&lt;/div&gt;" style="text;html=1;strokeColor=none;fillColor=none;align=center;verticalAlign=middle;whiteSpace=wrap;rounded=0;shadow=1;fontFamily=Comic Sans MS;fontSize=14;opacity=0;" vertex="1" parent="1">
          <mxGeometry x="560" y="545" width="40" height="15" as="geometry" />
        </mxCell>
        <mxCell id="JaEttNUjWMTkqEFJcnPO-128" value="&lt;div class=&quot;okr-block-clipboard&quot;&gt;&lt;/div&gt;&lt;div&gt;&lt;font style=&quot;font-size: 12px&quot; color=&quot;#ff6666&quot;&gt;(7)&lt;/font&gt;&lt;/div&gt;" style="text;html=1;strokeColor=none;fillColor=none;align=center;verticalAlign=middle;whiteSpace=wrap;rounded=0;shadow=1;fontFamily=Comic Sans MS;fontSize=14;opacity=0;" vertex="1" parent="1">
          <mxGeometry x="320" y="585" width="40" height="15" as="geometry" />
        </mxCell>
        <mxCell id="JaEttNUjWMTkqEFJcnPO-129" value="&lt;div class=&quot;okr-block-clipboard&quot;&gt;&lt;/div&gt;&lt;div&gt;&lt;font style=&quot;font-size: 12px&quot; color=&quot;#ff6666&quot;&gt;(8)&lt;/font&gt;&lt;/div&gt;" style="text;html=1;strokeColor=none;fillColor=none;align=center;verticalAlign=middle;whiteSpace=wrap;rounded=0;shadow=1;fontFamily=Comic Sans MS;fontSize=14;opacity=0;" vertex="1" parent="1">
          <mxGeometry x="360" y="585" width="40" height="15" as="geometry" />
        </mxCell>
        <mxCell id="JaEttNUjWMTkqEFJcnPO-130" value="&lt;div class=&quot;okr-block-clipboard&quot;&gt;&lt;/div&gt;&lt;div&gt;&lt;font style=&quot;font-size: 12px&quot; color=&quot;#ff6666&quot;&gt;(12)&lt;/font&gt;&lt;/div&gt;" style="text;html=1;strokeColor=none;fillColor=none;align=center;verticalAlign=middle;whiteSpace=wrap;rounded=0;shadow=1;fontFamily=Comic Sans MS;fontSize=14;opacity=0;" vertex="1" parent="1">
          <mxGeometry x="520" y="585" width="40" height="15" as="geometry" />
        </mxCell>
        <mxCell id="JaEttNUjWMTkqEFJcnPO-131" value="&lt;div class=&quot;okr-block-clipboard&quot;&gt;&lt;/div&gt;&lt;div&gt;&lt;font style=&quot;font-size: 12px&quot; color=&quot;#ff6666&quot;&gt;(13)&lt;/font&gt;&lt;/div&gt;" style="text;html=1;strokeColor=none;fillColor=none;align=center;verticalAlign=middle;whiteSpace=wrap;rounded=0;shadow=1;fontFamily=Comic Sans MS;fontSize=14;opacity=0;" vertex="1" parent="1">
          <mxGeometry x="560" y="585" width="40" height="15" as="geometry" />
        </mxCell>
        <mxCell id="JaEttNUjWMTkqEFJcnPO-132" value="&lt;div class=&quot;okr-block-clipboard&quot;&gt;&lt;/div&gt;&lt;div&gt;&lt;font style=&quot;font-size: 12px&quot; color=&quot;#ff6666&quot;&gt;(48)&lt;/font&gt;&lt;/div&gt;" style="text;html=1;strokeColor=none;fillColor=none;align=center;verticalAlign=middle;whiteSpace=wrap;rounded=0;shadow=1;fontFamily=Comic Sans MS;fontSize=14;opacity=0;" vertex="1" parent="1">
          <mxGeometry x="560" y="665" width="40" height="15" as="geometry" />
        </mxCell>
        <mxCell id="JaEttNUjWMTkqEFJcnPO-133" value="&lt;div class=&quot;okr-block-clipboard&quot;&gt;&lt;/div&gt;&lt;div&gt;&lt;font style=&quot;font-size: 12px&quot; color=&quot;#ff6666&quot;&gt;(47)&lt;/font&gt;&lt;/div&gt;" style="text;html=1;strokeColor=none;fillColor=none;align=center;verticalAlign=middle;whiteSpace=wrap;rounded=0;shadow=1;fontFamily=Comic Sans MS;fontSize=14;opacity=0;" vertex="1" parent="1">
          <mxGeometry x="520" y="665" width="40" height="15" as="geometry" />
        </mxCell>
        <mxCell id="JaEttNUjWMTkqEFJcnPO-134" value="&lt;div class=&quot;okr-block-clipboard&quot;&gt;&lt;/div&gt;&lt;div&gt;&lt;font style=&quot;font-size: 12px&quot; color=&quot;#ff6666&quot;&gt;(42)&lt;/font&gt;&lt;/div&gt;" style="text;html=1;strokeColor=none;fillColor=none;align=center;verticalAlign=middle;whiteSpace=wrap;rounded=0;shadow=1;fontFamily=Comic Sans MS;fontSize=14;opacity=0;" vertex="1" parent="1">
          <mxGeometry x="320" y="665" width="40" height="15" as="geometry" />
        </mxCell>
        <mxCell id="JaEttNUjWMTkqEFJcnPO-135" value="&lt;div class=&quot;okr-block-clipboard&quot;&gt;&lt;/div&gt;&lt;div&gt;&lt;font style=&quot;font-size: 12px&quot; color=&quot;#ff6666&quot;&gt;(43)&lt;/font&gt;&lt;/div&gt;" style="text;html=1;strokeColor=none;fillColor=none;align=center;verticalAlign=middle;whiteSpace=wrap;rounded=0;shadow=1;fontFamily=Comic Sans MS;fontSize=14;opacity=0;" vertex="1" parent="1">
          <mxGeometry x="360" y="665" width="40" height="15" as="geometry" />
        </mxCell>
        <mxCell id="JaEttNUjWMTkqEFJcnPO-136" value="&lt;div class=&quot;okr-block-clipboard&quot;&gt;&lt;/div&gt;&lt;div&gt;&lt;font style=&quot;font-size: 12px&quot;&gt;rand7 - 1&lt;/font&gt;&lt;/div&gt;" style="text;html=1;strokeColor=none;fillColor=none;align=center;verticalAlign=middle;whiteSpace=wrap;rounded=0;shadow=1;fontFamily=Comic Sans MS;fontSize=14;opacity=0;" vertex="1" parent="1">
          <mxGeometry x="290" y="470" width="60" height="20" as="geometry" />
        </mxCell>
        <mxCell id="JaEttNUjWMTkqEFJcnPO-138" value="" style="endArrow=none;html=1;rounded=0;fontFamily=Comic Sans MS;fontSize=12;fontColor=#FF6666;entryX=1;entryY=0;entryDx=0;entryDy=0;" edge="1" parent="1" target="JaEttNUjWMTkqEFJcnPO-89">
          <mxGeometry width="50" height="50" relative="1" as="geometry">
            <mxPoint x="280" y="480" as="sourcePoint" />
            <mxPoint x="290" y="440" as="targetPoint" />
          </mxGeometry>
        </mxCell>
        <mxCell id="JaEttNUjWMTkqEFJcnPO-139" value="&lt;div class=&quot;okr-block-clipboard&quot;&gt;&lt;/div&gt;&lt;div&gt;&lt;font style=&quot;font-size: 12px&quot;&gt;rand7 - 1&lt;/font&gt;&lt;/div&gt;" style="text;html=1;strokeColor=none;fillColor=none;align=center;verticalAlign=middle;whiteSpace=wrap;rounded=0;shadow=1;fontFamily=Comic Sans MS;fontSize=14;opacity=0;" vertex="1" parent="1">
          <mxGeometry x="240" y="500" width="60" height="20" as="geometry" />
        </mxCell>
        <mxCell id="JaEttNUjWMTkqEFJcnPO-140" value="红色&lt;font color=&quot;#000000&quot;&gt;表示10进制数字&lt;/font&gt;" style="text;html=1;strokeColor=none;fillColor=none;align=center;verticalAlign=middle;whiteSpace=wrap;rounded=0;shadow=1;fontFamily=Comic Sans MS;fontSize=12;fontColor=#FF6666;opacity=0;" vertex="1" parent="1">
          <mxGeometry x="380" y="440" width="160" height="40" as="geometry" />
        </mxCell>
        <mxCell id="JaEttNUjWMTkqEFJcnPO-141" value="&lt;font face=&quot;Comic Sans MS&quot; style=&quot;font-size: 14px&quot;&gt;0&lt;/font&gt;" style="rounded=0;whiteSpace=wrap;html=1;fillColor=#f5f5f5;fontColor=#333333;strokeColor=#666666;shadow=1;opacity=0;" vertex="1" parent="1">
          <mxGeometry x="320" y="880" width="40" height="40" as="geometry" />
        </mxCell>
        <mxCell id="JaEttNUjWMTkqEFJcnPO-142" value="&lt;font face=&quot;Comic Sans MS&quot; style=&quot;font-size: 14px&quot;&gt;1&lt;/font&gt;" style="rounded=0;whiteSpace=wrap;html=1;fillColor=#f5f5f5;fontColor=#333333;strokeColor=#666666;shadow=1;opacity=0;" vertex="1" parent="1">
          <mxGeometry x="320" y="920" width="40" height="40" as="geometry" />
        </mxCell>
        <mxCell id="JaEttNUjWMTkqEFJcnPO-143" value="&lt;font face=&quot;Comic Sans MS&quot; style=&quot;font-size: 14px&quot;&gt;0&lt;/font&gt;" style="rounded=0;whiteSpace=wrap;html=1;fillColor=#f5f5f5;fontColor=#333333;strokeColor=#666666;shadow=1;opacity=0;" vertex="1" parent="1">
          <mxGeometry x="360" y="840" width="40" height="40" as="geometry" />
        </mxCell>
        <mxCell id="JaEttNUjWMTkqEFJcnPO-144" value="&lt;font face=&quot;Comic Sans MS&quot; style=&quot;font-size: 14px&quot;&gt;1&lt;/font&gt;" style="rounded=0;whiteSpace=wrap;html=1;fillColor=#f5f5f5;fontColor=#333333;strokeColor=#666666;shadow=1;opacity=0;" vertex="1" parent="1">
          <mxGeometry x="400" y="840" width="40" height="40" as="geometry" />
        </mxCell>
        <mxCell id="JaEttNUjWMTkqEFJcnPO-145" value="... ..." style="rounded=0;whiteSpace=wrap;html=1;fillColor=#f5f5f5;fontColor=#333333;strokeColor=#666666;shadow=1;opacity=0;" vertex="1" parent="1">
          <mxGeometry x="440" y="840" width="120" height="40" as="geometry" />
        </mxCell>
        <mxCell id="JaEttNUjWMTkqEFJcnPO-146" value="&lt;font face=&quot;Comic Sans MS&quot; style=&quot;font-size: 14px&quot;&gt;6&lt;/font&gt;" style="rounded=0;whiteSpace=wrap;html=1;fillColor=#f5f5f5;fontColor=#333333;strokeColor=#666666;shadow=1;opacity=0;" vertex="1" parent="1">
          <mxGeometry x="560" y="840" width="40" height="40" as="geometry" />
        </mxCell>
        <mxCell id="JaEttNUjWMTkqEFJcnPO-147" value="&lt;font face=&quot;Comic Sans MS&quot; style=&quot;font-size: 14px&quot;&gt;00&lt;/font&gt;" style="rounded=0;whiteSpace=wrap;html=1;fillColor=#f5f5f5;fontColor=#333333;strokeColor=#666666;shadow=1;" vertex="1" parent="1">
          <mxGeometry x="360" y="880" width="40" height="40" as="geometry" />
        </mxCell>
        <mxCell id="JaEttNUjWMTkqEFJcnPO-148" value="&lt;font face=&quot;Comic Sans MS&quot; style=&quot;font-size: 14px&quot;&gt;01&lt;/font&gt;" style="rounded=0;whiteSpace=wrap;html=1;fillColor=#f5f5f5;fontColor=#333333;strokeColor=#666666;shadow=1;" vertex="1" parent="1">
          <mxGeometry x="400" y="880" width="40" height="40" as="geometry" />
        </mxCell>
        <mxCell id="JaEttNUjWMTkqEFJcnPO-149" value="... ..." style="rounded=0;whiteSpace=wrap;html=1;fillColor=#f5f5f5;fontColor=#333333;strokeColor=#666666;shadow=1;" vertex="1" parent="1">
          <mxGeometry x="440" y="880" width="120" height="40" as="geometry" />
        </mxCell>
        <mxCell id="JaEttNUjWMTkqEFJcnPO-150" value="&lt;font face=&quot;Comic Sans MS&quot; style=&quot;font-size: 14px&quot;&gt;06&lt;/font&gt;" style="rounded=0;whiteSpace=wrap;html=1;fillColor=#f5f5f5;fontColor=#333333;strokeColor=#666666;shadow=1;" vertex="1" parent="1">
          <mxGeometry x="560" y="880" width="40" height="40" as="geometry" />
        </mxCell>
        <mxCell id="JaEttNUjWMTkqEFJcnPO-151" value="&lt;font face=&quot;Comic Sans MS&quot; style=&quot;font-size: 14px&quot;&gt;10&lt;/font&gt;" style="rounded=0;whiteSpace=wrap;html=1;fillColor=#f5f5f5;fontColor=#333333;strokeColor=#666666;shadow=1;" vertex="1" parent="1">
          <mxGeometry x="360" y="920" width="40" height="40" as="geometry" />
        </mxCell>
        <mxCell id="JaEttNUjWMTkqEFJcnPO-152" value="&lt;font face=&quot;Comic Sans MS&quot; style=&quot;font-size: 14px&quot;&gt;11&lt;/font&gt;" style="rounded=0;whiteSpace=wrap;html=1;fillColor=#f5f5f5;fontColor=#333333;strokeColor=#666666;shadow=1;" vertex="1" parent="1">
          <mxGeometry x="400" y="920" width="40" height="40" as="geometry" />
        </mxCell>
        <mxCell id="JaEttNUjWMTkqEFJcnPO-153" value="... ..." style="rounded=0;whiteSpace=wrap;html=1;fillColor=#f5f5f5;fontColor=#333333;strokeColor=#666666;shadow=1;" vertex="1" parent="1">
          <mxGeometry x="440" y="920" width="120" height="40" as="geometry" />
        </mxCell>
        <mxCell id="JaEttNUjWMTkqEFJcnPO-154" value="&lt;font face=&quot;Comic Sans MS&quot; style=&quot;font-size: 14px&quot;&gt;16&lt;/font&gt;" style="rounded=0;whiteSpace=wrap;html=1;fillColor=#f5f5f5;fontColor=#333333;strokeColor=#666666;shadow=1;" vertex="1" parent="1">
          <mxGeometry x="560" y="920" width="40" height="40" as="geometry" />
        </mxCell>
        <mxCell id="JaEttNUjWMTkqEFJcnPO-155" value="&lt;font face=&quot;Comic Sans MS&quot; style=&quot;font-size: 14px&quot;&gt;7&lt;/font&gt;" style="rounded=0;whiteSpace=wrap;html=1;fillColor=#f5f5f5;fontColor=#333333;strokeColor=#666666;shadow=1;opacity=0;" vertex="1" parent="1">
          <mxGeometry x="600" y="840" width="40" height="40" as="geometry" />
        </mxCell>
        <mxCell id="JaEttNUjWMTkqEFJcnPO-156" value="&lt;font face=&quot;Comic Sans MS&quot; style=&quot;font-size: 14px&quot;&gt;07&lt;/font&gt;" style="rounded=0;whiteSpace=wrap;html=1;fillColor=#f5f5f5;fontColor=#333333;strokeColor=#666666;shadow=1;" vertex="1" parent="1">
          <mxGeometry x="600" y="880" width="40" height="40" as="geometry" />
        </mxCell>
        <mxCell id="JaEttNUjWMTkqEFJcnPO-157" value="&lt;font face=&quot;Comic Sans MS&quot; style=&quot;font-size: 14px&quot;&gt;17&lt;/font&gt;" style="rounded=0;whiteSpace=wrap;html=1;fillColor=#f5f5f5;fontColor=#333333;strokeColor=#666666;shadow=1;" vertex="1" parent="1">
          <mxGeometry x="600" y="920" width="40" height="40" as="geometry" />
        </mxCell>
        <mxCell id="JaEttNUjWMTkqEFJcnPO-159" value="&lt;font face=&quot;Comic Sans MS&quot;&gt;&lt;span style=&quot;font-size: 14px&quot;&gt;2&lt;/span&gt;&lt;/font&gt;" style="rounded=0;whiteSpace=wrap;html=1;fillColor=#f5f5f5;fontColor=#333333;strokeColor=#666666;shadow=1;opacity=0;" vertex="1" parent="1">
          <mxGeometry x="320" y="960" width="40" height="40" as="geometry" />
        </mxCell>
        <mxCell id="JaEttNUjWMTkqEFJcnPO-160" value="&lt;font face=&quot;Comic Sans MS&quot; style=&quot;font-size: 14px&quot;&gt;20&lt;/font&gt;" style="rounded=0;whiteSpace=wrap;html=1;fillColor=#f5f5f5;fontColor=#333333;strokeColor=#666666;shadow=1;" vertex="1" parent="1">
          <mxGeometry x="360" y="960" width="40" height="40" as="geometry" />
        </mxCell>
        <mxCell id="JaEttNUjWMTkqEFJcnPO-161" value="&lt;font face=&quot;Comic Sans MS&quot; style=&quot;font-size: 14px&quot;&gt;21&lt;/font&gt;" style="rounded=0;whiteSpace=wrap;html=1;fillColor=#f5f5f5;fontColor=#333333;strokeColor=#666666;shadow=1;" vertex="1" parent="1">
          <mxGeometry x="400" y="960" width="40" height="40" as="geometry" />
        </mxCell>
        <mxCell id="JaEttNUjWMTkqEFJcnPO-162" value="... ..." style="rounded=0;whiteSpace=wrap;html=1;fillColor=#f5f5f5;fontColor=#333333;strokeColor=#666666;shadow=1;" vertex="1" parent="1">
          <mxGeometry x="440" y="960" width="120" height="40" as="geometry" />
        </mxCell>
        <mxCell id="JaEttNUjWMTkqEFJcnPO-163" value="&lt;font face=&quot;Comic Sans MS&quot;&gt;&lt;span style=&quot;font-size: 14px&quot;&gt;26&lt;/span&gt;&lt;/font&gt;" style="rounded=0;whiteSpace=wrap;html=1;fillColor=#f5f5f5;fontColor=#333333;strokeColor=#666666;shadow=1;" vertex="1" parent="1">
          <mxGeometry x="560" y="960" width="40" height="40" as="geometry" />
        </mxCell>
        <mxCell id="JaEttNUjWMTkqEFJcnPO-164" value="&lt;font face=&quot;Comic Sans MS&quot;&gt;&lt;span style=&quot;font-size: 14px&quot;&gt;27&lt;/span&gt;&lt;/font&gt;" style="rounded=0;whiteSpace=wrap;html=1;fillColor=#f5f5f5;fontColor=#333333;strokeColor=#666666;shadow=1;" vertex="1" parent="1">
          <mxGeometry x="600" y="960" width="40" height="40" as="geometry" />
        </mxCell>
        <mxCell id="JaEttNUjWMTkqEFJcnPO-166" value="&lt;div class=&quot;okr-block-clipboard&quot;&gt;&lt;/div&gt;&lt;div&gt;&lt;font style=&quot;font-size: 12px&quot; color=&quot;#ff6666&quot;&gt;(0)&lt;/font&gt;&lt;/div&gt;" style="text;html=1;strokeColor=none;fillColor=none;align=center;verticalAlign=middle;whiteSpace=wrap;rounded=0;shadow=1;fontFamily=Comic Sans MS;fontSize=14;opacity=0;" vertex="1" parent="1">
          <mxGeometry x="360" y="905" width="40" height="15" as="geometry" />
        </mxCell>
        <mxCell id="JaEttNUjWMTkqEFJcnPO-167" value="&lt;div class=&quot;okr-block-clipboard&quot;&gt;&lt;/div&gt;&lt;div&gt;&lt;font style=&quot;font-size: 12px&quot; color=&quot;#ff6666&quot;&gt;(1)&lt;/font&gt;&lt;/div&gt;" style="text;html=1;strokeColor=none;fillColor=none;align=center;verticalAlign=middle;whiteSpace=wrap;rounded=0;shadow=1;fontFamily=Comic Sans MS;fontSize=14;opacity=0;" vertex="1" parent="1">
          <mxGeometry x="400" y="905" width="40" height="15" as="geometry" />
        </mxCell>
        <mxCell id="JaEttNUjWMTkqEFJcnPO-168" value="&lt;div class=&quot;okr-block-clipboard&quot;&gt;&lt;/div&gt;&lt;div&gt;&lt;font style=&quot;font-size: 12px&quot; color=&quot;#ff6666&quot;&gt;(6)&lt;/font&gt;&lt;/div&gt;" style="text;html=1;strokeColor=none;fillColor=none;align=center;verticalAlign=middle;whiteSpace=wrap;rounded=0;shadow=1;fontFamily=Comic Sans MS;fontSize=14;opacity=0;" vertex="1" parent="1">
          <mxGeometry x="560" y="905" width="40" height="15" as="geometry" />
        </mxCell>
        <mxCell id="JaEttNUjWMTkqEFJcnPO-169" value="&lt;div class=&quot;okr-block-clipboard&quot;&gt;&lt;/div&gt;&lt;div&gt;&lt;font style=&quot;font-size: 12px&quot; color=&quot;#ff6666&quot;&gt;(7)&lt;/font&gt;&lt;/div&gt;" style="text;html=1;strokeColor=none;fillColor=none;align=center;verticalAlign=middle;whiteSpace=wrap;rounded=0;shadow=1;fontFamily=Comic Sans MS;fontSize=14;opacity=0;" vertex="1" parent="1">
          <mxGeometry x="600" y="905" width="40" height="15" as="geometry" />
        </mxCell>
        <mxCell id="JaEttNUjWMTkqEFJcnPO-170" value="&lt;div class=&quot;okr-block-clipboard&quot;&gt;&lt;/div&gt;&lt;div&gt;&lt;font style=&quot;font-size: 12px&quot; color=&quot;#ff6666&quot;&gt;(8)&lt;/font&gt;&lt;/div&gt;" style="text;html=1;strokeColor=none;fillColor=none;align=center;verticalAlign=middle;whiteSpace=wrap;rounded=0;shadow=1;fontFamily=Comic Sans MS;fontSize=14;opacity=0;" vertex="1" parent="1">
          <mxGeometry x="360" y="945" width="40" height="15" as="geometry" />
        </mxCell>
        <mxCell id="JaEttNUjWMTkqEFJcnPO-171" value="&lt;div class=&quot;okr-block-clipboard&quot;&gt;&lt;/div&gt;&lt;div&gt;&lt;font style=&quot;font-size: 12px&quot; color=&quot;#ff6666&quot;&gt;(9)&lt;/font&gt;&lt;/div&gt;" style="text;html=1;strokeColor=none;fillColor=none;align=center;verticalAlign=middle;whiteSpace=wrap;rounded=0;shadow=1;fontFamily=Comic Sans MS;fontSize=14;opacity=0;" vertex="1" parent="1">
          <mxGeometry x="400" y="945" width="40" height="15" as="geometry" />
        </mxCell>
        <mxCell id="JaEttNUjWMTkqEFJcnPO-172" value="&lt;div class=&quot;okr-block-clipboard&quot;&gt;&lt;/div&gt;&lt;div&gt;&lt;font style=&quot;font-size: 12px&quot; color=&quot;#ff6666&quot;&gt;(14)&lt;/font&gt;&lt;/div&gt;" style="text;html=1;strokeColor=none;fillColor=none;align=center;verticalAlign=middle;whiteSpace=wrap;rounded=0;shadow=1;fontFamily=Comic Sans MS;fontSize=14;opacity=0;" vertex="1" parent="1">
          <mxGeometry x="560" y="945" width="40" height="15" as="geometry" />
        </mxCell>
        <mxCell id="JaEttNUjWMTkqEFJcnPO-173" value="&lt;div class=&quot;okr-block-clipboard&quot;&gt;&lt;/div&gt;&lt;div&gt;&lt;font style=&quot;font-size: 12px&quot; color=&quot;#ff6666&quot;&gt;(15)&lt;/font&gt;&lt;/div&gt;" style="text;html=1;strokeColor=none;fillColor=none;align=center;verticalAlign=middle;whiteSpace=wrap;rounded=0;shadow=1;fontFamily=Comic Sans MS;fontSize=14;opacity=0;" vertex="1" parent="1">
          <mxGeometry x="600" y="945" width="40" height="15" as="geometry" />
        </mxCell>
        <mxCell id="JaEttNUjWMTkqEFJcnPO-174" value="&lt;div class=&quot;okr-block-clipboard&quot;&gt;&lt;/div&gt;&lt;div&gt;&lt;font style=&quot;font-size: 12px&quot; color=&quot;#ff6666&quot;&gt;(23)&lt;/font&gt;&lt;/div&gt;" style="text;html=1;strokeColor=none;fillColor=none;align=center;verticalAlign=middle;whiteSpace=wrap;rounded=0;shadow=1;fontFamily=Comic Sans MS;fontSize=14;opacity=0;" vertex="1" parent="1">
          <mxGeometry x="600" y="985" width="40" height="15" as="geometry" />
        </mxCell>
        <mxCell id="JaEttNUjWMTkqEFJcnPO-175" value="&lt;div class=&quot;okr-block-clipboard&quot;&gt;&lt;/div&gt;&lt;div&gt;&lt;font style=&quot;font-size: 12px&quot; color=&quot;#ff6666&quot;&gt;(22)&lt;/font&gt;&lt;/div&gt;" style="text;html=1;strokeColor=none;fillColor=none;align=center;verticalAlign=middle;whiteSpace=wrap;rounded=0;shadow=1;fontFamily=Comic Sans MS;fontSize=14;opacity=0;" vertex="1" parent="1">
          <mxGeometry x="560" y="985" width="40" height="15" as="geometry" />
        </mxCell>
        <mxCell id="JaEttNUjWMTkqEFJcnPO-176" value="&lt;div class=&quot;okr-block-clipboard&quot;&gt;&lt;/div&gt;&lt;div&gt;&lt;font style=&quot;font-size: 12px&quot; color=&quot;#ff6666&quot;&gt;(16)&lt;/font&gt;&lt;/div&gt;" style="text;html=1;strokeColor=none;fillColor=none;align=center;verticalAlign=middle;whiteSpace=wrap;rounded=0;shadow=1;fontFamily=Comic Sans MS;fontSize=14;opacity=0;" vertex="1" parent="1">
          <mxGeometry x="360" y="985" width="40" height="15" as="geometry" />
        </mxCell>
        <mxCell id="JaEttNUjWMTkqEFJcnPO-177" value="&lt;div class=&quot;okr-block-clipboard&quot;&gt;&lt;/div&gt;&lt;div&gt;&lt;font style=&quot;font-size: 12px&quot; color=&quot;#ff6666&quot;&gt;(17)&lt;/font&gt;&lt;/div&gt;" style="text;html=1;strokeColor=none;fillColor=none;align=center;verticalAlign=middle;whiteSpace=wrap;rounded=0;shadow=1;fontFamily=Comic Sans MS;fontSize=14;opacity=0;" vertex="1" parent="1">
          <mxGeometry x="400" y="985" width="40" height="15" as="geometry" />
        </mxCell>
        <mxCell id="JaEttNUjWMTkqEFJcnPO-178" value="&lt;div class=&quot;okr-block-clipboard&quot;&gt;&lt;/div&gt;&lt;div&gt;&lt;font style=&quot;font-size: 12px&quot;&gt;rand8 - 1&lt;/font&gt;&lt;/div&gt;" style="text;html=1;strokeColor=none;fillColor=none;align=center;verticalAlign=middle;whiteSpace=wrap;rounded=0;shadow=1;fontFamily=Comic Sans MS;fontSize=14;opacity=0;" vertex="1" parent="1">
          <mxGeometry x="330" y="830" width="60" height="20" as="geometry" />
        </mxCell>
        <mxCell id="JaEttNUjWMTkqEFJcnPO-179" value="" style="endArrow=none;html=1;rounded=0;fontFamily=Comic Sans MS;fontSize=12;fontColor=#FF6666;entryX=1;entryY=0;entryDx=0;entryDy=0;" edge="1" parent="1" target="JaEttNUjWMTkqEFJcnPO-141">
          <mxGeometry width="50" height="50" relative="1" as="geometry">
            <mxPoint x="320" y="840" as="sourcePoint" />
            <mxPoint x="330" y="800" as="targetPoint" />
          </mxGeometry>
        </mxCell>
        <mxCell id="JaEttNUjWMTkqEFJcnPO-180" value="&lt;div class=&quot;okr-block-clipboard&quot;&gt;&lt;/div&gt;&lt;div&gt;&lt;font style=&quot;font-size: 12px&quot;&gt;rand3 - 1&lt;/font&gt;&lt;/div&gt;" style="text;html=1;strokeColor=none;fillColor=none;align=center;verticalAlign=middle;whiteSpace=wrap;rounded=0;shadow=1;fontFamily=Comic Sans MS;fontSize=14;opacity=0;" vertex="1" parent="1">
          <mxGeometry x="280" y="860" width="60" height="20" as="geometry" />
        </mxCell>
        <mxCell id="JaEttNUjWMTkqEFJcnPO-181" value="&lt;span style=&quot;color: rgb(0 , 0 , 0)&quot;&gt;8*(rand3-1) + (rand8 - 1)&lt;/span&gt;&lt;br&gt;红色&lt;font color=&quot;#000000&quot;&gt;表示10进制数字&lt;br&gt;&lt;/font&gt;黑色&lt;font color=&quot;#000000&quot;&gt;表示8进制数字&lt;/font&gt;&lt;font color=&quot;#000000&quot;&gt;&lt;br&gt;&lt;/font&gt;" style="text;html=1;strokeColor=none;fillColor=none;align=center;verticalAlign=middle;whiteSpace=wrap;rounded=0;shadow=1;fontFamily=Comic Sans MS;fontSize=12;fontColor=#FF6666;opacity=0;" vertex="1" parent="1">
          <mxGeometry x="420" y="780" width="160" height="70" as="geometry" />
        </mxCell>
        <mxCell id="JaEttNUjWMTkqEFJcnPO-183" value="&lt;font face=&quot;Comic Sans MS&quot; style=&quot;font-size: 14px&quot;&gt;0&lt;/font&gt;" style="rounded=0;whiteSpace=wrap;html=1;fillColor=#f5f5f5;fontColor=#333333;strokeColor=#666666;shadow=1;opacity=0;" vertex="1" parent="1">
          <mxGeometry x="760" y="880" width="40" height="40" as="geometry" />
        </mxCell>
        <mxCell id="JaEttNUjWMTkqEFJcnPO-184" value="&lt;font face=&quot;Comic Sans MS&quot; style=&quot;font-size: 14px&quot;&gt;1&lt;/font&gt;" style="rounded=0;whiteSpace=wrap;html=1;fillColor=#f5f5f5;fontColor=#333333;strokeColor=#666666;shadow=1;opacity=0;" vertex="1" parent="1">
          <mxGeometry x="760" y="920" width="40" height="40" as="geometry" />
        </mxCell>
        <mxCell id="JaEttNUjWMTkqEFJcnPO-185" value="&lt;font face=&quot;Comic Sans MS&quot; style=&quot;font-size: 14px&quot;&gt;0&lt;/font&gt;" style="rounded=0;whiteSpace=wrap;html=1;fillColor=#f5f5f5;fontColor=#333333;strokeColor=#666666;shadow=1;opacity=0;" vertex="1" parent="1">
          <mxGeometry x="800" y="840" width="40" height="40" as="geometry" />
        </mxCell>
        <mxCell id="JaEttNUjWMTkqEFJcnPO-186" value="&lt;font face=&quot;Comic Sans MS&quot; style=&quot;font-size: 14px&quot;&gt;1&lt;/font&gt;" style="rounded=0;whiteSpace=wrap;html=1;fillColor=#f5f5f5;fontColor=#333333;strokeColor=#666666;shadow=1;opacity=0;" vertex="1" parent="1">
          <mxGeometry x="840" y="840" width="40" height="40" as="geometry" />
        </mxCell>
        <mxCell id="JaEttNUjWMTkqEFJcnPO-188" value="&lt;font face=&quot;Comic Sans MS&quot; style=&quot;font-size: 14px&quot;&gt;2&lt;/font&gt;" style="rounded=0;whiteSpace=wrap;html=1;fillColor=#f5f5f5;fontColor=#333333;strokeColor=#666666;shadow=1;opacity=0;" vertex="1" parent="1">
          <mxGeometry x="880" y="840" width="40" height="40" as="geometry" />
        </mxCell>
        <mxCell id="JaEttNUjWMTkqEFJcnPO-189" value="&lt;font face=&quot;Comic Sans MS&quot; style=&quot;font-size: 14px&quot;&gt;00&lt;/font&gt;" style="rounded=0;whiteSpace=wrap;html=1;fillColor=#f5f5f5;fontColor=#333333;strokeColor=#666666;shadow=1;" vertex="1" parent="1">
          <mxGeometry x="800" y="880" width="40" height="40" as="geometry" />
        </mxCell>
        <mxCell id="JaEttNUjWMTkqEFJcnPO-190" value="&lt;font face=&quot;Comic Sans MS&quot; style=&quot;font-size: 14px&quot;&gt;01&lt;/font&gt;" style="rounded=0;whiteSpace=wrap;html=1;fillColor=#f5f5f5;fontColor=#333333;strokeColor=#666666;shadow=1;" vertex="1" parent="1">
          <mxGeometry x="840" y="880" width="40" height="40" as="geometry" />
        </mxCell>
        <mxCell id="JaEttNUjWMTkqEFJcnPO-192" value="&lt;font face=&quot;Comic Sans MS&quot; style=&quot;font-size: 14px&quot;&gt;02&lt;/font&gt;" style="rounded=0;whiteSpace=wrap;html=1;fillColor=#f5f5f5;fontColor=#333333;strokeColor=#666666;shadow=1;" vertex="1" parent="1">
          <mxGeometry x="880" y="880" width="40" height="40" as="geometry" />
        </mxCell>
        <mxCell id="JaEttNUjWMTkqEFJcnPO-193" value="&lt;font face=&quot;Comic Sans MS&quot; style=&quot;font-size: 14px&quot;&gt;10&lt;/font&gt;" style="rounded=0;whiteSpace=wrap;html=1;fillColor=#f5f5f5;fontColor=#333333;strokeColor=#666666;shadow=1;" vertex="1" parent="1">
          <mxGeometry x="800" y="920" width="40" height="40" as="geometry" />
        </mxCell>
        <mxCell id="JaEttNUjWMTkqEFJcnPO-194" value="&lt;font face=&quot;Comic Sans MS&quot; style=&quot;font-size: 14px&quot;&gt;11&lt;/font&gt;" style="rounded=0;whiteSpace=wrap;html=1;fillColor=#f5f5f5;fontColor=#333333;strokeColor=#666666;shadow=1;" vertex="1" parent="1">
          <mxGeometry x="840" y="920" width="40" height="40" as="geometry" />
        </mxCell>
        <mxCell id="JaEttNUjWMTkqEFJcnPO-196" value="&lt;font face=&quot;Comic Sans MS&quot; style=&quot;font-size: 14px&quot;&gt;12&lt;/font&gt;" style="rounded=0;whiteSpace=wrap;html=1;fillColor=#f5f5f5;fontColor=#333333;strokeColor=#666666;shadow=1;" vertex="1" parent="1">
          <mxGeometry x="880" y="920" width="40" height="40" as="geometry" />
        </mxCell>
        <mxCell id="JaEttNUjWMTkqEFJcnPO-206" value="&lt;div class=&quot;okr-block-clipboard&quot;&gt;&lt;/div&gt;&lt;div&gt;&lt;font style=&quot;font-size: 12px&quot; color=&quot;#ff6666&quot;&gt;(0)&lt;/font&gt;&lt;/div&gt;" style="text;html=1;strokeColor=none;fillColor=none;align=center;verticalAlign=middle;whiteSpace=wrap;rounded=0;shadow=1;fontFamily=Comic Sans MS;fontSize=14;opacity=0;" vertex="1" parent="1">
          <mxGeometry x="800" y="905" width="40" height="15" as="geometry" />
        </mxCell>
        <mxCell id="JaEttNUjWMTkqEFJcnPO-207" value="&lt;div class=&quot;okr-block-clipboard&quot;&gt;&lt;/div&gt;&lt;div&gt;&lt;font style=&quot;font-size: 12px&quot; color=&quot;#ff6666&quot;&gt;(1)&lt;/font&gt;&lt;/div&gt;" style="text;html=1;strokeColor=none;fillColor=none;align=center;verticalAlign=middle;whiteSpace=wrap;rounded=0;shadow=1;fontFamily=Comic Sans MS;fontSize=14;opacity=0;" vertex="1" parent="1">
          <mxGeometry x="840" y="905" width="40" height="15" as="geometry" />
        </mxCell>
        <mxCell id="JaEttNUjWMTkqEFJcnPO-208" value="&lt;div class=&quot;okr-block-clipboard&quot;&gt;&lt;/div&gt;&lt;div&gt;&lt;font style=&quot;font-size: 12px&quot; color=&quot;#ff6666&quot;&gt;(2)&lt;/font&gt;&lt;/div&gt;" style="text;html=1;strokeColor=none;fillColor=none;align=center;verticalAlign=middle;whiteSpace=wrap;rounded=0;shadow=1;fontFamily=Comic Sans MS;fontSize=14;opacity=0;" vertex="1" parent="1">
          <mxGeometry x="880" y="905" width="40" height="15" as="geometry" />
        </mxCell>
        <mxCell id="JaEttNUjWMTkqEFJcnPO-210" value="&lt;div class=&quot;okr-block-clipboard&quot;&gt;&lt;/div&gt;&lt;div&gt;&lt;font style=&quot;font-size: 12px&quot; color=&quot;#ff6666&quot;&gt;(3)&lt;/font&gt;&lt;/div&gt;" style="text;html=1;strokeColor=none;fillColor=none;align=center;verticalAlign=middle;whiteSpace=wrap;rounded=0;shadow=1;fontFamily=Comic Sans MS;fontSize=14;opacity=0;" vertex="1" parent="1">
          <mxGeometry x="800" y="945" width="40" height="15" as="geometry" />
        </mxCell>
        <mxCell id="JaEttNUjWMTkqEFJcnPO-211" value="&lt;div class=&quot;okr-block-clipboard&quot;&gt;&lt;/div&gt;&lt;div&gt;&lt;font style=&quot;font-size: 12px&quot; color=&quot;#ff6666&quot;&gt;(4)&lt;/font&gt;&lt;/div&gt;" style="text;html=1;strokeColor=none;fillColor=none;align=center;verticalAlign=middle;whiteSpace=wrap;rounded=0;shadow=1;fontFamily=Comic Sans MS;fontSize=14;opacity=0;" vertex="1" parent="1">
          <mxGeometry x="840" y="945" width="40" height="15" as="geometry" />
        </mxCell>
        <mxCell id="JaEttNUjWMTkqEFJcnPO-212" value="&lt;div class=&quot;okr-block-clipboard&quot;&gt;&lt;/div&gt;&lt;div&gt;&lt;font style=&quot;font-size: 12px&quot; color=&quot;#ff6666&quot;&gt;(5)&lt;/font&gt;&lt;/div&gt;" style="text;html=1;strokeColor=none;fillColor=none;align=center;verticalAlign=middle;whiteSpace=wrap;rounded=0;shadow=1;fontFamily=Comic Sans MS;fontSize=14;opacity=0;" vertex="1" parent="1">
          <mxGeometry x="880" y="945" width="40" height="15" as="geometry" />
        </mxCell>
        <mxCell id="JaEttNUjWMTkqEFJcnPO-218" value="&lt;div class=&quot;okr-block-clipboard&quot;&gt;&lt;/div&gt;&lt;div&gt;&lt;font style=&quot;font-size: 12px&quot;&gt;rand3 - 1&lt;/font&gt;&lt;/div&gt;" style="text;html=1;strokeColor=none;fillColor=none;align=center;verticalAlign=middle;whiteSpace=wrap;rounded=0;shadow=1;fontFamily=Comic Sans MS;fontSize=14;opacity=0;" vertex="1" parent="1">
          <mxGeometry x="770" y="830" width="60" height="20" as="geometry" />
        </mxCell>
        <mxCell id="JaEttNUjWMTkqEFJcnPO-219" value="" style="endArrow=none;html=1;rounded=0;fontFamily=Comic Sans MS;fontSize=12;fontColor=#FF6666;entryX=1;entryY=0;entryDx=0;entryDy=0;" edge="1" parent="1" target="JaEttNUjWMTkqEFJcnPO-183">
          <mxGeometry width="50" height="50" relative="1" as="geometry">
            <mxPoint x="760" y="840" as="sourcePoint" />
            <mxPoint x="770" y="800" as="targetPoint" />
          </mxGeometry>
        </mxCell>
        <mxCell id="JaEttNUjWMTkqEFJcnPO-220" value="&lt;div class=&quot;okr-block-clipboard&quot;&gt;&lt;/div&gt;&lt;div&gt;&lt;font style=&quot;font-size: 12px&quot;&gt;rand8 - 1&lt;/font&gt;&lt;/div&gt;" style="text;html=1;strokeColor=none;fillColor=none;align=center;verticalAlign=middle;whiteSpace=wrap;rounded=0;shadow=1;fontFamily=Comic Sans MS;fontSize=14;opacity=0;" vertex="1" parent="1">
          <mxGeometry x="720" y="860" width="60" height="20" as="geometry" />
        </mxCell>
        <mxCell id="JaEttNUjWMTkqEFJcnPO-221" value="&lt;div class=&quot;okr-block-clipboard&quot;&gt;&lt;/div&gt;&lt;div&gt;&lt;font color=&quot;#000000&quot;&gt;3*(rand8-1) + (rand3 - 1)&lt;/font&gt;&lt;/div&gt;红色&lt;font color=&quot;#000000&quot;&gt;表示10进制数字&lt;br&gt;&lt;/font&gt;黑色&lt;font color=&quot;#000000&quot;&gt;表示3进制数字&lt;/font&gt;&lt;font color=&quot;#000000&quot;&gt;&lt;br&gt;&lt;/font&gt;" style="text;html=1;strokeColor=none;fillColor=none;align=center;verticalAlign=middle;whiteSpace=wrap;rounded=0;shadow=1;fontFamily=Comic Sans MS;fontSize=12;fontColor=#FF6666;opacity=0;" vertex="1" parent="1">
          <mxGeometry x="780" y="760" width="160" height="70" as="geometry" />
        </mxCell>
        <mxCell id="JaEttNUjWMTkqEFJcnPO-222" value="... ..." style="rounded=0;whiteSpace=wrap;html=1;fillColor=#f5f5f5;fontColor=#333333;strokeColor=#666666;shadow=1;" vertex="1" parent="1">
          <mxGeometry x="800" y="960" width="120" height="40" as="geometry" />
        </mxCell>
        <mxCell id="JaEttNUjWMTkqEFJcnPO-200" value="&lt;font face=&quot;Comic Sans MS&quot;&gt;&lt;span style=&quot;font-size: 14px&quot;&gt;6&lt;/span&gt;&lt;/font&gt;" style="rounded=0;whiteSpace=wrap;html=1;fillColor=#f5f5f5;fontColor=#333333;strokeColor=#666666;shadow=1;opacity=0;" vertex="1" parent="1">
          <mxGeometry x="760" y="1000" width="40" height="40" as="geometry" />
        </mxCell>
        <mxCell id="JaEttNUjWMTkqEFJcnPO-201" value="&lt;font face=&quot;Comic Sans MS&quot; style=&quot;font-size: 14px&quot;&gt;60&lt;/font&gt;" style="rounded=0;whiteSpace=wrap;html=1;fillColor=#f5f5f5;fontColor=#333333;strokeColor=#666666;shadow=1;" vertex="1" parent="1">
          <mxGeometry x="800" y="1000" width="40" height="40" as="geometry" />
        </mxCell>
        <mxCell id="JaEttNUjWMTkqEFJcnPO-202" value="&lt;font face=&quot;Comic Sans MS&quot; style=&quot;font-size: 14px&quot;&gt;61&lt;/font&gt;" style="rounded=0;whiteSpace=wrap;html=1;fillColor=#f5f5f5;fontColor=#333333;strokeColor=#666666;shadow=1;" vertex="1" parent="1">
          <mxGeometry x="840" y="1000" width="40" height="40" as="geometry" />
        </mxCell>
        <mxCell id="JaEttNUjWMTkqEFJcnPO-204" value="&lt;font face=&quot;Comic Sans MS&quot;&gt;&lt;span style=&quot;font-size: 14px&quot;&gt;62&lt;/span&gt;&lt;/font&gt;" style="rounded=0;whiteSpace=wrap;html=1;fillColor=#f5f5f5;fontColor=#333333;strokeColor=#666666;shadow=1;" vertex="1" parent="1">
          <mxGeometry x="880" y="1000" width="40" height="40" as="geometry" />
        </mxCell>
        <mxCell id="JaEttNUjWMTkqEFJcnPO-215" value="&lt;div class=&quot;okr-block-clipboard&quot;&gt;&lt;/div&gt;&lt;div&gt;&lt;font style=&quot;font-size: 12px&quot; color=&quot;#ff6666&quot;&gt;(20)&lt;/font&gt;&lt;/div&gt;" style="text;html=1;strokeColor=none;fillColor=none;align=center;verticalAlign=middle;whiteSpace=wrap;rounded=0;shadow=1;fontFamily=Comic Sans MS;fontSize=14;opacity=0;" vertex="1" parent="1">
          <mxGeometry x="880" y="1025" width="40" height="15" as="geometry" />
        </mxCell>
        <mxCell id="JaEttNUjWMTkqEFJcnPO-216" value="&lt;div class=&quot;okr-block-clipboard&quot;&gt;&lt;/div&gt;&lt;div&gt;&lt;font style=&quot;font-size: 12px&quot; color=&quot;#ff6666&quot;&gt;(18)&lt;/font&gt;&lt;/div&gt;" style="text;html=1;strokeColor=none;fillColor=none;align=center;verticalAlign=middle;whiteSpace=wrap;rounded=0;shadow=1;fontFamily=Comic Sans MS;fontSize=14;opacity=0;" vertex="1" parent="1">
          <mxGeometry x="800" y="1025" width="40" height="15" as="geometry" />
        </mxCell>
        <mxCell id="JaEttNUjWMTkqEFJcnPO-217" value="&lt;div class=&quot;okr-block-clipboard&quot;&gt;&lt;/div&gt;&lt;div&gt;&lt;font style=&quot;font-size: 12px&quot; color=&quot;#ff6666&quot;&gt;(19)&lt;/font&gt;&lt;/div&gt;" style="text;html=1;strokeColor=none;fillColor=none;align=center;verticalAlign=middle;whiteSpace=wrap;rounded=0;shadow=1;fontFamily=Comic Sans MS;fontSize=14;opacity=0;" vertex="1" parent="1">
          <mxGeometry x="840" y="1025" width="40" height="15" as="geometry" />
        </mxCell>
        <mxCell id="JaEttNUjWMTkqEFJcnPO-234" value="&lt;font face=&quot;Comic Sans MS&quot;&gt;&lt;span style=&quot;font-size: 14px&quot;&gt;7&lt;/span&gt;&lt;/font&gt;" style="rounded=0;whiteSpace=wrap;html=1;fillColor=#f5f5f5;fontColor=#333333;strokeColor=#666666;shadow=1;opacity=0;" vertex="1" parent="1">
          <mxGeometry x="760" y="1040" width="40" height="40" as="geometry" />
        </mxCell>
        <mxCell id="JaEttNUjWMTkqEFJcnPO-235" value="&lt;font face=&quot;Comic Sans MS&quot; style=&quot;font-size: 14px&quot;&gt;70&lt;/font&gt;" style="rounded=0;whiteSpace=wrap;html=1;fillColor=#f5f5f5;fontColor=#333333;strokeColor=#666666;shadow=1;" vertex="1" parent="1">
          <mxGeometry x="800" y="1040" width="40" height="40" as="geometry" />
        </mxCell>
        <mxCell id="JaEttNUjWMTkqEFJcnPO-236" value="&lt;font face=&quot;Comic Sans MS&quot; style=&quot;font-size: 14px&quot;&gt;71&lt;/font&gt;" style="rounded=0;whiteSpace=wrap;html=1;fillColor=#f5f5f5;fontColor=#333333;strokeColor=#666666;shadow=1;" vertex="1" parent="1">
          <mxGeometry x="840" y="1040" width="40" height="40" as="geometry" />
        </mxCell>
        <mxCell id="JaEttNUjWMTkqEFJcnPO-237" value="&lt;font face=&quot;Comic Sans MS&quot;&gt;&lt;span style=&quot;font-size: 14px&quot;&gt;72&lt;/span&gt;&lt;/font&gt;" style="rounded=0;whiteSpace=wrap;html=1;fillColor=#f5f5f5;fontColor=#333333;strokeColor=#666666;shadow=1;" vertex="1" parent="1">
          <mxGeometry x="880" y="1040" width="40" height="40" as="geometry" />
        </mxCell>
        <mxCell id="JaEttNUjWMTkqEFJcnPO-238" value="&lt;div class=&quot;okr-block-clipboard&quot;&gt;&lt;/div&gt;&lt;div&gt;&lt;font style=&quot;font-size: 12px&quot; color=&quot;#ff6666&quot;&gt;(23)&lt;/font&gt;&lt;/div&gt;" style="text;html=1;strokeColor=none;fillColor=none;align=center;verticalAlign=middle;whiteSpace=wrap;rounded=0;shadow=1;fontFamily=Comic Sans MS;fontSize=14;opacity=0;" vertex="1" parent="1">
          <mxGeometry x="880" y="1065" width="40" height="15" as="geometry" />
        </mxCell>
        <mxCell id="JaEttNUjWMTkqEFJcnPO-239" value="&lt;div class=&quot;okr-block-clipboard&quot;&gt;&lt;/div&gt;&lt;div&gt;&lt;font style=&quot;font-size: 12px&quot; color=&quot;#ff6666&quot;&gt;(21)&lt;/font&gt;&lt;/div&gt;" style="text;html=1;strokeColor=none;fillColor=none;align=center;verticalAlign=middle;whiteSpace=wrap;rounded=0;shadow=1;fontFamily=Comic Sans MS;fontSize=14;opacity=0;" vertex="1" parent="1">
          <mxGeometry x="800" y="1065" width="40" height="15" as="geometry" />
        </mxCell>
        <mxCell id="JaEttNUjWMTkqEFJcnPO-240" value="&lt;div class=&quot;okr-block-clipboard&quot;&gt;&lt;/div&gt;&lt;div&gt;&lt;font style=&quot;font-size: 12px&quot; color=&quot;#ff6666&quot;&gt;(22)&lt;/font&gt;&lt;/div&gt;" style="text;html=1;strokeColor=none;fillColor=none;align=center;verticalAlign=middle;whiteSpace=wrap;rounded=0;shadow=1;fontFamily=Comic Sans MS;fontSize=14;opacity=0;" vertex="1" parent="1">
          <mxGeometry x="840" y="1065" width="40" height="15" as="geometry" />
        </mxCell>
      </root>
    </mxGraphModel>
  </diagram>
</mxfile>
